<svg xmlns="http://www.w3.org/2000/svg" viewBox="0 0 64 64" role="img" aria-label="Finanzperformance">
  <defs>
    <linearGradient id="gold" x1="10" x2="33" y1="12" y2="52" gradientUnits="userSpaceOnUse">
      <stop stop-color="#ffe39a"/>
      <stop offset=".55" stop-color="#c58a2a"/>
      <stop offset="1" stop-color="#7a4a12"/>
    </linearGradient>
    <linearGradient id="steel" x1="29" x2="55" y1="9" y2="54" gradientUnits="userSpaceOnUse">
      <stop stop-color="#f1f4f4"/>
      <stop offset=".45" stop-color="#6c7578"/>
      <stop offset="1" stop-color="#191f22"/>
    </linearGradient>
    <linearGradient id="arrow" x1="16" x2="58" y1="52" y2="17" gradientUnits="userSpaceOnUse">
      <stop stop-color="#efc969"/>
      <stop offset="1" stop-color="#ffdf73"/>
    </linearGradient>
  </defs>
  <path fill="url(#gold)" d="M12 13h16v4h-4v34h4v4H12v-4h4V17h-4z"/>
  <path fill="url(#steel)" d="M39.2 12h4.9l15.3 43h-8l-3.3-9.7H35.2L32 55h-7.8zm6.8 27.2-4.4-13-4.4 13z"/>
  <path fill="url(#arrow)" d="M11.5 53.4c15-7.5 29-18.6 41.7-33.2l-4.4-3.8 12.1-3.8-2.1 12.5-4.2-3.6C41.5 37.4 27.1 48.2 11.5 53.4Z"/>
  <path fill="#d7a34a" d="M30 43h3.7v10H30zm7.4-4.2h3.7V53h-3.7zm7.4-5.7h3.7V53h-3.7z"/>
</svg>
